<mxfile host="Electron" agent="Mozilla/5.0 (Windows NT 10.0; Win64; x64) AppleWebKit/537.36 (KHTML, like Gecko) draw.io/28.0.6 Chrome/138.0.7204.100 Electron/37.2.3 Safari/537.36" version="28.0.6">
  <diagram name="Page-1" id="wu3Q5bihapbQpqnoNsKn">
    <mxGraphModel dx="577" dy="524" grid="1" gridSize="10" guides="1" tooltips="1" connect="1" arrows="1" fold="1" page="1" pageScale="1" pageWidth="850" pageHeight="1100" math="0" shadow="0">
      <root>
        <mxCell id="0" />
        <mxCell id="1" parent="0" />
        <mxCell id="fgIS-i0JxiSjy2Bl6y06-1" value="" style="rounded=0;whiteSpace=wrap;html=1;fillColor=none;dashed=1;strokeColor=light-dark(#787878, #ededed);" vertex="1" parent="1">
          <mxGeometry x="60" y="110" width="120" height="340" as="geometry" />
        </mxCell>
        <mxCell id="fgIS-i0JxiSjy2Bl6y06-4" value="Sources" style="rounded=0;whiteSpace=wrap;html=1;fontSize=18;strokeColor=none;dashed=1;" vertex="1" parent="1">
          <mxGeometry x="85" y="100" width="70" height="20" as="geometry" />
        </mxCell>
        <mxCell id="fgIS-i0JxiSjy2Bl6y06-5" value="" style="rounded=0;whiteSpace=wrap;html=1;fillColor=none;dashed=1;strokeColor=light-dark(#787878, #ededed);" vertex="1" parent="1">
          <mxGeometry x="220" y="110" width="460" height="340" as="geometry" />
        </mxCell>
        <mxCell id="fgIS-i0JxiSjy2Bl6y06-6" value="Data Warehouse" style="rounded=0;whiteSpace=wrap;html=1;fontSize=18;strokeColor=none;dashed=1;" vertex="1" parent="1">
          <mxGeometry x="380" y="100" width="150" height="20" as="geometry" />
        </mxCell>
        <mxCell id="fgIS-i0JxiSjy2Bl6y06-9" value="" style="rounded=0;whiteSpace=wrap;html=1;fillColor=none;dashed=1;strokeColor=light-dark(#787878, #ededed);" vertex="1" parent="1">
          <mxGeometry x="710" y="110" width="120" height="340" as="geometry" />
        </mxCell>
        <mxCell id="fgIS-i0JxiSjy2Bl6y06-10" value="Consume" style="rounded=0;whiteSpace=wrap;html=1;fontSize=18;strokeColor=none;dashed=1;" vertex="1" parent="1">
          <mxGeometry x="735" y="100" width="70" height="20" as="geometry" />
        </mxCell>
        <mxCell id="fgIS-i0JxiSjy2Bl6y06-11" value="Bronze Layer" style="rounded=0;whiteSpace=wrap;html=1;fillColor=#ffe6cc;strokeColor=#d79b00;" vertex="1" parent="1">
          <mxGeometry x="230" y="130" width="130" height="20" as="geometry" />
        </mxCell>
        <mxCell id="fgIS-i0JxiSjy2Bl6y06-12" value="" style="rounded=0;whiteSpace=wrap;html=1;fillColor=none;strokeColor=#d79b00;" vertex="1" parent="1">
          <mxGeometry x="230" y="160" width="130" height="270" as="geometry" />
        </mxCell>
        <mxCell id="fgIS-i0JxiSjy2Bl6y06-13" value="Silver Layer" style="rounded=0;whiteSpace=wrap;html=1;fillColor=#f5f5f5;strokeColor=#666666;fontColor=#333333;" vertex="1" parent="1">
          <mxGeometry x="405" y="130" width="100" height="20" as="geometry" />
        </mxCell>
        <mxCell id="fgIS-i0JxiSjy2Bl6y06-14" value="" style="rounded=0;whiteSpace=wrap;html=1;fillColor=none;strokeColor=#666666;fontColor=#333333;" vertex="1" parent="1">
          <mxGeometry x="390" y="160" width="130" height="270" as="geometry" />
        </mxCell>
        <mxCell id="fgIS-i0JxiSjy2Bl6y06-15" value="Gold Layer" style="rounded=0;whiteSpace=wrap;html=1;fillColor=#fff2cc;strokeColor=#d6b656;" vertex="1" parent="1">
          <mxGeometry x="550" y="130" width="120" height="20" as="geometry" />
        </mxCell>
        <mxCell id="fgIS-i0JxiSjy2Bl6y06-16" value="" style="rounded=0;whiteSpace=wrap;html=1;fillColor=none;strokeColor=#d6b656;" vertex="1" parent="1">
          <mxGeometry x="540" y="160" width="130" height="270" as="geometry" />
        </mxCell>
        <mxCell id="fgIS-i0JxiSjy2Bl6y06-18" value="CRM" style="image;aspect=fixed;html=1;points=[];align=center;fontSize=12;image=img/lib/azure2/general/Folder_Blank.svg;" vertex="1" parent="1">
          <mxGeometry x="91.32" y="170" width="44.36" height="36" as="geometry" />
        </mxCell>
        <mxCell id="fgIS-i0JxiSjy2Bl6y06-21" value="" style="image;aspect=fixed;html=1;points=[];align=center;fontSize=12;image=img/lib/azure2/general/File.svg;" vertex="1" parent="1">
          <mxGeometry x="123.5" y="190" width="18.67" height="23" as="geometry" />
        </mxCell>
        <mxCell id="fgIS-i0JxiSjy2Bl6y06-22" value="ERP" style="image;aspect=fixed;html=1;points=[];align=center;fontSize=12;image=img/lib/azure2/general/Folder_Blank.svg;" vertex="1" parent="1">
          <mxGeometry x="94.57" y="273.5" width="44.36" height="36" as="geometry" />
        </mxCell>
        <mxCell id="fgIS-i0JxiSjy2Bl6y06-23" value="" style="image;aspect=fixed;html=1;points=[];align=center;fontSize=12;image=img/lib/azure2/general/File.svg;" vertex="1" parent="1">
          <mxGeometry x="126.75" y="293.5" width="18.67" height="23" as="geometry" />
        </mxCell>
        <mxCell id="fgIS-i0JxiSjy2Bl6y06-27" value="" style="line;strokeWidth=1;html=1;fillColor=#f5f5f5;fontColor=#333333;strokeColor=#666666;" vertex="1" parent="1">
          <mxGeometry x="77.5" y="360" width="85" height="10" as="geometry" />
        </mxCell>
        <mxCell id="fgIS-i0JxiSjy2Bl6y06-30" value="&lt;div style=&quot;line-height: 90%;&quot;&gt;&lt;font style=&quot;font-size: 10px; line-height: 90%;&quot;&gt;&lt;b&gt;Object type&lt;/b&gt;: CVS Files&lt;/font&gt;&lt;div&gt;&lt;font style=&quot;font-size: 10px; line-height: 90%;&quot;&gt;&lt;b&gt;Interface&lt;/b&gt;: Files in Folder&lt;/font&gt;&lt;/div&gt;&lt;/div&gt;" style="text;html=1;align=center;verticalAlign=middle;whiteSpace=wrap;rounded=0;" vertex="1" parent="1">
          <mxGeometry x="70" y="380" width="100" height="60" as="geometry" />
        </mxCell>
        <mxCell id="fgIS-i0JxiSjy2Bl6y06-31" value="" style="html=1;verticalLabelPosition=bottom;align=center;labelBackgroundColor=#ffffff;verticalAlign=top;strokeWidth=2;strokeColor=#d79b00;shadow=0;dashed=0;shape=mxgraph.ios7.icons.data;fillColor=#ffe6cc;" vertex="1" parent="1">
          <mxGeometry x="282" y="169.55" width="26" height="30" as="geometry" />
        </mxCell>
        <mxCell id="fgIS-i0JxiSjy2Bl6y06-32" value="" style="html=1;verticalLabelPosition=bottom;align=center;labelBackgroundColor=#ffffff;verticalAlign=top;strokeWidth=2;strokeColor=#666666;shadow=0;dashed=0;shape=mxgraph.ios7.icons.data;fillColor=#f5f5f5;fontColor=#333333;" vertex="1" parent="1">
          <mxGeometry x="441.5" y="169.55" width="27" height="30" as="geometry" />
        </mxCell>
        <mxCell id="fgIS-i0JxiSjy2Bl6y06-33" value="" style="html=1;verticalLabelPosition=bottom;align=center;labelBackgroundColor=#ffffff;verticalAlign=top;strokeWidth=2;strokeColor=#d6b656;shadow=0;dashed=0;shape=mxgraph.ios7.icons.data;fillColor=#fff2cc;" vertex="1" parent="1">
          <mxGeometry x="592" y="170" width="26" height="29.55" as="geometry" />
        </mxCell>
        <mxCell id="fgIS-i0JxiSjy2Bl6y06-34" value="&lt;font style=&quot;font-size: 11px;&quot;&gt;Raw Data&lt;/font&gt;" style="text;html=1;align=center;verticalAlign=middle;whiteSpace=wrap;rounded=0;" vertex="1" parent="1">
          <mxGeometry x="262.5" y="210.32" width="60" height="26.27" as="geometry" />
        </mxCell>
        <mxCell id="fgIS-i0JxiSjy2Bl6y06-35" value="&lt;font style=&quot;font-size: 11px;&quot;&gt;Cleaned, Standarized Data&lt;/font&gt;" style="text;html=1;align=center;verticalAlign=middle;whiteSpace=wrap;rounded=0;" vertex="1" parent="1">
          <mxGeometry x="414.75" y="213" width="83.5" height="20.9" as="geometry" />
        </mxCell>
        <mxCell id="fgIS-i0JxiSjy2Bl6y06-36" value="&lt;font style=&quot;font-size: 11px;&quot;&gt;Business -ready Data&lt;/font&gt;" style="text;html=1;align=center;verticalAlign=middle;whiteSpace=wrap;rounded=0;" vertex="1" parent="1">
          <mxGeometry x="575" y="205.99999999999997" width="60" height="20.9" as="geometry" />
        </mxCell>
        <mxCell id="fgIS-i0JxiSjy2Bl6y06-37" style="edgeStyle=orthogonalEdgeStyle;rounded=0;orthogonalLoop=1;jettySize=auto;html=1;exitX=0.5;exitY=1;exitDx=0;exitDy=0;" edge="1" parent="1" source="fgIS-i0JxiSjy2Bl6y06-36" target="fgIS-i0JxiSjy2Bl6y06-36">
          <mxGeometry relative="1" as="geometry" />
        </mxCell>
        <mxCell id="fgIS-i0JxiSjy2Bl6y06-39" value="" style="line;strokeWidth=1;html=1;fillColor=#f5f5f5;fontColor=#333333;strokeColor=#666666;" vertex="1" parent="1">
          <mxGeometry x="245" y="240" width="100" height="10" as="geometry" />
        </mxCell>
        <mxCell id="fgIS-i0JxiSjy2Bl6y06-40" value="" style="line;strokeWidth=1;html=1;fillColor=#f5f5f5;fontColor=#333333;strokeColor=#666666;" vertex="1" parent="1">
          <mxGeometry x="400" y="240" width="110" height="10" as="geometry" />
        </mxCell>
        <mxCell id="fgIS-i0JxiSjy2Bl6y06-41" value="" style="line;strokeWidth=1;html=1;fillColor=#f5f5f5;fontColor=#333333;strokeColor=#666666;" vertex="1" parent="1">
          <mxGeometry x="550" y="240.00000000000003" width="110" height="10" as="geometry" />
        </mxCell>
        <mxCell id="fgIS-i0JxiSjy2Bl6y06-42" value="&lt;div style=&quot;line-height: 90%;&quot;&gt;&lt;font style=&quot;line-height: 90%; font-size: 9px;&quot;&gt;&lt;b&gt;Object type: &lt;/b&gt;Tables&lt;/font&gt;&lt;/div&gt;&lt;div style=&quot;line-height: 90%;&quot;&gt;&lt;font style=&quot;font-size: 9px;&quot;&gt;&lt;b&gt;&lt;span style=&quot;background-color: transparent; color: light-dark(rgb(0, 0, 0), rgb(255, 255, 255));&quot;&gt;&lt;br&gt;&lt;/span&gt;&lt;/b&gt;&lt;/font&gt;&lt;/div&gt;&lt;div style=&quot;line-height: 90%;&quot;&gt;&lt;font style=&quot;font-size: 9px;&quot;&gt;&lt;b&gt;&lt;span style=&quot;background-color: transparent; color: light-dark(rgb(0, 0, 0), rgb(255, 255, 255));&quot;&gt;Load&lt;/span&gt;&lt;span style=&quot;background-color: transparent; color: light-dark(rgb(0, 0, 0), rgb(255, 255, 255));&quot;&gt;:&lt;/span&gt;&lt;/b&gt;&lt;/font&gt;&lt;/div&gt;&lt;div style=&quot;line-height: 90%;&quot;&gt;&lt;span style=&quot;background-color: transparent; color: light-dark(rgb(0, 0, 0), rgb(255, 255, 255)); font-size: 9px;&quot;&gt;Batch Processing&lt;/span&gt;&lt;br&gt;&lt;span style=&quot;background-color: transparent; color: light-dark(rgb(0, 0, 0), rgb(255, 255, 255)); font-size: 9px;&quot;&gt;Full Load&lt;/span&gt;&lt;/div&gt;&lt;div style=&quot;line-height: 90%;&quot;&gt;&lt;span style=&quot;background-color: transparent; color: light-dark(rgb(0, 0, 0), rgb(255, 255, 255)); font-size: 9px;&quot;&gt;Truncate &amp;amp; Insert&lt;/span&gt;&lt;/div&gt;&lt;div style=&quot;line-height: 90%;&quot;&gt;&lt;b&gt;&lt;br&gt;&lt;/b&gt;&lt;/div&gt;&lt;div style=&quot;line-height: 90%;&quot;&gt;&lt;font size=&quot;1&quot;&gt;&lt;b&gt;No transformations&lt;/b&gt;&lt;/font&gt;&lt;/div&gt;&lt;div style=&quot;line-height: 90%;&quot;&gt;&lt;font size=&quot;1&quot;&gt;&lt;b&gt;&lt;br&gt;&lt;/b&gt;&lt;/font&gt;&lt;/div&gt;&lt;div style=&quot;line-height: 90%;&quot;&gt;&lt;font size=&quot;1&quot;&gt;&lt;b&gt;Data model: &lt;/b&gt;None(as is)&lt;/font&gt;&lt;/div&gt;" style="text;html=1;align=center;verticalAlign=middle;whiteSpace=wrap;rounded=0;" vertex="1" parent="1">
          <mxGeometry x="245" y="293.5" width="95" height="60" as="geometry" />
        </mxCell>
        <mxCell id="fgIS-i0JxiSjy2Bl6y06-52" value="&lt;div style=&quot;line-height: 90%;&quot;&gt;&lt;font style=&quot;line-height: 90%;&quot;&gt;&lt;b&gt;Object type: &lt;/b&gt;Tables&lt;/font&gt;&lt;/div&gt;&lt;div style=&quot;line-height: 90%;&quot;&gt;&lt;font&gt;&lt;b&gt;&lt;span style=&quot;background-color: transparent; color: light-dark(rgb(0, 0, 0), rgb(255, 255, 255));&quot;&gt;&lt;br&gt;&lt;/span&gt;&lt;/b&gt;&lt;/font&gt;&lt;/div&gt;&lt;div style=&quot;line-height: 90%;&quot;&gt;&lt;font&gt;&lt;b&gt;&lt;span style=&quot;background-color: transparent; color: light-dark(rgb(0, 0, 0), rgb(255, 255, 255));&quot;&gt;Load&lt;/span&gt;&lt;span style=&quot;background-color: transparent; color: light-dark(rgb(0, 0, 0), rgb(255, 255, 255));&quot;&gt;:&lt;/span&gt;&lt;/b&gt;&lt;/font&gt;&lt;/div&gt;&lt;div style=&quot;line-height: 90%;&quot;&gt;&lt;span style=&quot;background-color: transparent; color: light-dark(rgb(0, 0, 0), rgb(255, 255, 255));&quot;&gt;Batch Processing&lt;/span&gt;&lt;br&gt;&lt;span style=&quot;background-color: transparent; color: light-dark(rgb(0, 0, 0), rgb(255, 255, 255));&quot;&gt;Full Load&lt;/span&gt;&lt;/div&gt;&lt;div style=&quot;line-height: 90%;&quot;&gt;&lt;span style=&quot;background-color: transparent; color: light-dark(rgb(0, 0, 0), rgb(255, 255, 255));&quot;&gt;Truncate &amp;amp; Insert&lt;/span&gt;&lt;/div&gt;&lt;div style=&quot;line-height: 90%;&quot;&gt;&lt;b&gt;&lt;br&gt;&lt;/b&gt;&lt;/div&gt;&lt;div style=&quot;line-height: 90%;&quot;&gt;&lt;font&gt;&lt;b&gt;Transformations:&lt;/b&gt;&lt;/font&gt;&lt;/div&gt;&lt;div style=&quot;line-height: 90%;&quot;&gt;&lt;font&gt;&lt;b&gt;&lt;br&gt;&lt;/b&gt;&lt;/font&gt;&lt;/div&gt;&lt;div style=&quot;line-height: 90%;&quot;&gt;&lt;font&gt;Data Cleansing&lt;/font&gt;&lt;/div&gt;&lt;div style=&quot;line-height: 90%;&quot;&gt;&lt;font&gt;Data Standardation&lt;/font&gt;&lt;/div&gt;&lt;div style=&quot;line-height: 90%;&quot;&gt;&lt;font&gt;Data Normalization&lt;/font&gt;&lt;/div&gt;&lt;div style=&quot;line-height: 90%;&quot;&gt;&lt;font&gt;Derived Columns&lt;/font&gt;&lt;/div&gt;&lt;div style=&quot;line-height: 90%;&quot;&gt;&lt;font&gt;Data Enrichment&lt;/font&gt;&lt;/div&gt;&lt;div style=&quot;line-height: 90%;&quot;&gt;&lt;font&gt;&lt;b&gt;&lt;br&gt;&lt;/b&gt;&lt;/font&gt;&lt;/div&gt;&lt;div style=&quot;line-height: 90%;&quot;&gt;&lt;font&gt;&lt;b&gt;Data model: &lt;/b&gt;None(as is)&lt;/font&gt;&lt;/div&gt;" style="text;html=1;align=center;verticalAlign=middle;whiteSpace=wrap;rounded=0;fontSize=10;" vertex="1" parent="1">
          <mxGeometry x="403.25" y="309.5" width="106.5" height="60" as="geometry" />
        </mxCell>
        <mxCell id="fgIS-i0JxiSjy2Bl6y06-55" value="&lt;div style=&quot;line-height: 90%;&quot;&gt;&lt;font style=&quot;line-height: 90%;&quot;&gt;&lt;b&gt;Object type: &lt;/b&gt;Views&lt;/font&gt;&lt;/div&gt;&lt;div style=&quot;line-height: 90%;&quot;&gt;&lt;font&gt;&lt;b&gt;&lt;span style=&quot;background-color: transparent; color: light-dark(rgb(0, 0, 0), rgb(255, 255, 255));&quot;&gt;&lt;br&gt;&lt;/span&gt;&lt;/b&gt;&lt;/font&gt;&lt;/div&gt;&lt;div style=&quot;line-height: 90%;&quot;&gt;&lt;font&gt;&lt;b&gt;&lt;span style=&quot;background-color: transparent; color: light-dark(rgb(0, 0, 0), rgb(255, 255, 255));&quot;&gt;No Load&lt;/span&gt;&lt;/b&gt;&lt;/font&gt;&lt;/div&gt;&lt;div style=&quot;line-height: 90%;&quot;&gt;&lt;b&gt;&lt;br&gt;&lt;/b&gt;&lt;/div&gt;&lt;div style=&quot;line-height: 90%;&quot;&gt;&lt;font&gt;&lt;b&gt;Transformations:&lt;/b&gt;&lt;/font&gt;&lt;/div&gt;&lt;div style=&quot;line-height: 90%;&quot;&gt;&lt;font&gt;&lt;b&gt;&lt;br&gt;&lt;/b&gt;&lt;/font&gt;&lt;/div&gt;&lt;div style=&quot;line-height: 90%;&quot;&gt;&lt;font&gt;Data Integrations&lt;/font&gt;&lt;/div&gt;&lt;div style=&quot;line-height: 90%;&quot;&gt;Aggregations&lt;/div&gt;&lt;div style=&quot;line-height: 90%;&quot;&gt;Business Logic&lt;/div&gt;&lt;div style=&quot;line-height: 90%;&quot;&gt;&lt;font&gt;&lt;b&gt;&lt;br&gt;&lt;/b&gt;&lt;/font&gt;&lt;/div&gt;&lt;div style=&quot;line-height: 90%;&quot;&gt;&lt;font&gt;&lt;b&gt;Data model:&lt;/b&gt;&lt;/font&gt;&lt;/div&gt;&lt;div style=&quot;line-height: 90%;&quot;&gt;&lt;font&gt;&lt;b&gt;&lt;br&gt;&lt;/b&gt;&lt;/font&gt;&lt;/div&gt;&lt;div style=&quot;line-height: 90%;&quot;&gt;&lt;font&gt;Star Schema&lt;/font&gt;&lt;/div&gt;&lt;div style=&quot;line-height: 90%;&quot;&gt;&lt;font&gt;Flat Table&lt;/font&gt;&lt;/div&gt;&lt;div style=&quot;line-height: 90%;&quot;&gt;&lt;font&gt;Agregated Table&lt;/font&gt;&lt;/div&gt;" style="text;html=1;align=center;verticalAlign=middle;whiteSpace=wrap;rounded=0;fontSize=10;" vertex="1" parent="1">
          <mxGeometry x="550" y="300" width="106.5" height="60" as="geometry" />
        </mxCell>
        <mxCell id="fgIS-i0JxiSjy2Bl6y06-57" value="" style="shape=flexArrow;endArrow=classic;html=1;rounded=0;fillColor=#dae8fc;strokeColor=#6c8ebf;endWidth=16.666666666666668;endSize=6.941666666666667;width=6.666666666666667;startSize=6;" edge="1" parent="1">
          <mxGeometry width="50" height="50" relative="1" as="geometry">
            <mxPoint x="180" y="270" as="sourcePoint" />
            <mxPoint x="230" y="270" as="targetPoint" />
          </mxGeometry>
        </mxCell>
        <mxCell id="fgIS-i0JxiSjy2Bl6y06-58" value="" style="shape=flexArrow;endArrow=classic;html=1;rounded=0;fillColor=#dae8fc;strokeColor=#6c8ebf;endWidth=16.666666666666668;endSize=6.941666666666667;width=6.666666666666667;startSize=6;" edge="1" parent="1">
          <mxGeometry width="50" height="50" relative="1" as="geometry">
            <mxPoint x="350" y="273.5" as="sourcePoint" />
            <mxPoint x="400" y="273.5" as="targetPoint" />
          </mxGeometry>
        </mxCell>
        <mxCell id="fgIS-i0JxiSjy2Bl6y06-59" value="" style="shape=flexArrow;endArrow=classic;html=1;rounded=0;fillColor=#dae8fc;strokeColor=#6c8ebf;endWidth=16.666666666666668;endSize=6.941666666666667;width=6.666666666666667;startSize=6;" edge="1" parent="1">
          <mxGeometry width="50" height="50" relative="1" as="geometry">
            <mxPoint x="505" y="273.5" as="sourcePoint" />
            <mxPoint x="555" y="273.5" as="targetPoint" />
          </mxGeometry>
        </mxCell>
        <mxCell id="fgIS-i0JxiSjy2Bl6y06-60" value="" style="shape=flexArrow;endArrow=classic;html=1;rounded=0;fillColor=#dae8fc;strokeColor=#6c8ebf;endWidth=16.666666666666668;endSize=6.941666666666667;width=6.666666666666667;startSize=6;" edge="1" parent="1">
          <mxGeometry width="50" height="50" relative="1" as="geometry">
            <mxPoint x="680" y="273.5" as="sourcePoint" />
            <mxPoint x="730" y="273.5" as="targetPoint" />
          </mxGeometry>
        </mxCell>
        <mxCell id="fgIS-i0JxiSjy2Bl6y06-61" value="Text" style="text;html=1;align=center;verticalAlign=middle;whiteSpace=wrap;rounded=0;" vertex="1" parent="1">
          <mxGeometry x="620" y="310" width="60" height="30" as="geometry" />
        </mxCell>
        <mxCell id="fgIS-i0JxiSjy2Bl6y06-62" value="Text" style="text;html=1;align=center;verticalAlign=middle;whiteSpace=wrap;rounded=0;" vertex="1" parent="1">
          <mxGeometry x="620" y="310" width="60" height="30" as="geometry" />
        </mxCell>
        <mxCell id="fgIS-i0JxiSjy2Bl6y06-63" value="Text" style="text;html=1;align=center;verticalAlign=middle;whiteSpace=wrap;rounded=0;" vertex="1" parent="1">
          <mxGeometry x="620" y="310" width="60" height="30" as="geometry" />
        </mxCell>
        <mxCell id="fgIS-i0JxiSjy2Bl6y06-65" value="BI &amp;amp; Reporting" style="text;html=1;align=center;verticalAlign=middle;whiteSpace=wrap;rounded=0;" vertex="1" parent="1">
          <mxGeometry x="740" y="169.55" width="60" height="30" as="geometry" />
        </mxCell>
        <mxCell id="fgIS-i0JxiSjy2Bl6y06-66" value="Text" style="text;html=1;align=center;verticalAlign=middle;whiteSpace=wrap;rounded=0;" vertex="1" parent="1">
          <mxGeometry x="620" y="310" width="60" height="30" as="geometry" />
        </mxCell>
        <mxCell id="fgIS-i0JxiSjy2Bl6y06-67" value="Ad-Hoc&lt;div&gt;&lt;span style=&quot;background-color: transparent; color: light-dark(rgb(0, 0, 0), rgb(255, 255, 255));&quot;&gt;SQL Queries&lt;/span&gt;&lt;/div&gt;" style="text;html=1;align=center;verticalAlign=middle;whiteSpace=wrap;rounded=0;" vertex="1" parent="1">
          <mxGeometry x="725" y="243.5" width="90" height="30" as="geometry" />
        </mxCell>
        <mxCell id="fgIS-i0JxiSjy2Bl6y06-68" value="Machine Learning" style="text;html=1;align=center;verticalAlign=middle;whiteSpace=wrap;rounded=0;" vertex="1" parent="1">
          <mxGeometry x="710.04" y="340" width="120" height="30" as="geometry" />
        </mxCell>
        <mxCell id="fgIS-i0JxiSjy2Bl6y06-69" value="" style="image;aspect=fixed;html=1;points=[];align=center;fontSize=12;image=img/lib/azure2/analytics/Power_BI_Embedded.svg;" vertex="1" parent="1">
          <mxGeometry x="759.5" y="141.55" width="21" height="28" as="geometry" />
        </mxCell>
        <mxCell id="fgIS-i0JxiSjy2Bl6y06-70" value="" style="sketch=0;pointerEvents=1;shadow=0;dashed=0;html=1;strokeColor=#6c8ebf;labelPosition=center;verticalLabelPosition=bottom;verticalAlign=top;align=center;fillColor=#dae8fc;shape=mxgraph.mscae.oms.log_search" vertex="1" parent="1">
          <mxGeometry x="755" y="213.5" width="30" height="30" as="geometry" />
        </mxCell>
        <mxCell id="fgIS-i0JxiSjy2Bl6y06-71" value="" style="points=[];aspect=fixed;html=1;align=center;shadow=0;dashed=0;fillColor=#FF6A00;strokeColor=none;shape=mxgraph.alibaba_cloud.machine_learning;" vertex="1" parent="1">
          <mxGeometry x="755.08" y="300" width="29.92" height="30.1" as="geometry" />
        </mxCell>
        <mxCell id="fgIS-i0JxiSjy2Bl6y06-73" value="" style="sketch=0;outlineConnect=0;fontColor=#232F3E;gradientColor=none;fillColor=#C925D1;strokeColor=none;dashed=0;verticalLabelPosition=bottom;verticalAlign=top;align=center;html=1;fontSize=12;fontStyle=0;aspect=fixed;pointerEvents=1;shape=mxgraph.aws4.rds_sql_server_instance;" vertex="1" parent="1">
          <mxGeometry x="530" y="70" width="50" height="50" as="geometry" />
        </mxCell>
        <mxCell id="fgIS-i0JxiSjy2Bl6y06-74" value="Text" style="text;html=1;align=center;verticalAlign=middle;whiteSpace=wrap;rounded=0;" vertex="1" parent="1">
          <mxGeometry x="270" y="230" width="60" height="30" as="geometry" />
        </mxCell>
        <mxCell id="fgIS-i0JxiSjy2Bl6y06-75" value="&lt;h1 style=&quot;margin-top: 0px;&quot;&gt;Architecture&lt;/h1&gt;" style="text;html=1;whiteSpace=wrap;overflow=hidden;rounded=0;" vertex="1" parent="1">
          <mxGeometry x="10" y="10" width="180" height="40" as="geometry" />
        </mxCell>
      </root>
    </mxGraphModel>
  </diagram>
</mxfile>
